<mxfile host="65bd71144e">
    <diagram id="0jGh3HINma7AjFqqg6Sr" name="Page-1">
        <mxGraphModel dx="579" dy="472" grid="1" gridSize="10" guides="1" tooltips="1" connect="1" arrows="1" fold="1" page="1" pageScale="1" pageWidth="850" pageHeight="1100" math="0" shadow="0">
            <root>
                <mxCell id="0"/>
                <mxCell id="1" parent="0"/>
                <mxCell id="8" style="edgeStyle=none;html=1;" edge="1" parent="1" source="2" target="7">
                    <mxGeometry relative="1" as="geometry"/>
                </mxCell>
                <mxCell id="2" value="Wallet Home" style="rounded=1;whiteSpace=wrap;html=1;align=center;verticalAlign=top;" vertex="1" parent="1">
                    <mxGeometry x="90" y="10" width="280" height="320" as="geometry"/>
                </mxCell>
                <mxCell id="3" value="Story&lt;br&gt;General Holdings" style="rounded=1;whiteSpace=wrap;html=1;align=center;verticalAlign=top;" vertex="1" parent="1">
                    <mxGeometry x="170" y="145" width="120" height="60" as="geometry"/>
                </mxCell>
                <mxCell id="4" value="Story&lt;br&gt;App bar" style="rounded=1;whiteSpace=wrap;html=1;align=center;verticalAlign=top;" vertex="1" parent="1">
                    <mxGeometry x="170" y="55" width="120" height="60" as="geometry"/>
                </mxCell>
                <mxCell id="5" value="Story&lt;br&gt;Nav Bar" style="rounded=1;whiteSpace=wrap;html=1;align=center;verticalAlign=top;" vertex="1" parent="1">
                    <mxGeometry x="170" y="225" width="120" height="60" as="geometry"/>
                </mxCell>
                <mxCell id="7" value="Wallet Coin" style="rounded=1;whiteSpace=wrap;html=1;align=center;verticalAlign=top;dashed=1;" vertex="1" parent="1">
                    <mxGeometry x="90" y="420" width="280" height="320" as="geometry"/>
                </mxCell>
            </root>
        </mxGraphModel>
    </diagram>
</mxfile>